<svg width="240" height="241" viewBox="0 0 240 241" fill="none" xmlns="http://www.w3.org/2000/svg">
<rect y="0.564453" width="240" height="240" rx="120" fill="#FFF8F8"/>
<g clip-path="url(#clip0_308_7551)">
<path d="M112.008 111.254C112.008 112.746 111.415 114.176 110.36 115.231C109.305 116.286 107.875 116.879 106.383 116.879C104.891 116.879 103.46 116.286 102.405 115.231C101.35 114.176 100.758 112.746 100.758 111.254C100.758 109.762 101.35 108.331 102.405 107.276C103.46 106.221 104.891 105.629 106.383 105.629C107.875 105.629 109.305 106.221 110.36 107.276C111.415 108.331 112.008 109.762 112.008 111.254Z" fill="#E51C23"/>
<path d="M97.0078 94.3787C95.0187 94.3787 93.111 95.1688 91.7045 96.5754C90.298 97.9819 89.5078 99.8895 89.5078 101.879V139.379C89.5078 141.368 90.298 143.275 91.7045 144.682C93.111 146.088 95.0187 146.879 97.0078 146.879H142.008C143.997 146.879 145.905 146.088 147.311 144.682C148.718 143.275 149.508 141.368 149.508 139.379V101.879C149.508 99.8895 148.718 97.9819 147.311 96.5754C145.905 95.1688 143.997 94.3787 142.008 94.3787H97.0078ZM142.008 98.1287C143.002 98.1287 143.956 98.5238 144.659 99.227C145.363 99.9303 145.758 100.884 145.758 101.879V126.254L131.594 118.952C131.242 118.776 130.844 118.715 130.456 118.778C130.068 118.84 129.709 119.023 129.43 119.301L115.518 133.214L105.543 126.569C105.183 126.329 104.751 126.221 104.32 126.263C103.889 126.306 103.487 126.496 103.18 126.801L93.2578 135.629V101.879C93.2578 100.884 93.6529 99.9303 94.3562 99.227C95.0594 98.5238 96.0133 98.1287 97.0078 98.1287H142.008Z" fill="#E51C23"/>
</g>
<defs>
<clipPath id="clip0_308_7551">
<rect width="60" height="60" fill="white" transform="translate(89.5 90.6287)"/>
</clipPath>
</defs>
</svg>
